<svg width="47" height="43" viewBox="0 0 47 43" fill="none" xmlns="http://www.w3.org/2000/svg">
<path d="M12 5C12 7.76142 9.76142 10 7 10C4.23858 10 2 7.76142 2 5C2 2.23858 4.23858 0 7 0C9.76142 0 12 2.23858 12 5Z" fill="#191919"/>
<path d="M45 5C45 7.76142 42.7614 10 40 10C37.2386 10 35 7.76142 35 5C35 2.23858 37.2386 0 40 0C42.7614 0 45 2.23858 45 5Z" fill="#191919"/>
<path d="M45 38C45 40.7614 42.7614 43 40 43C37.2386 43 35 40.7614 35 38C35 35.2386 37.2386 33 40 33C42.7614 33 45 35.2386 45 38Z" fill="#191919"/>
<path d="M12 38C12 40.7614 9.76142 43 7 43C4.23858 43 2 40.7614 2 38C2 35.2386 4.23858 33 7 33C9.76142 33 12 35.2386 12 38Z" fill="#191919"/>
<path d="M29 22C29 24.7614 26.7614 27 24 27C21.2386 27 19 24.7614 19 22C19 19.2386 21.2386 17 24 17C26.7614 17 29 19.2386 29 22Z" fill="#191919"/>
<path d="M14 22C14 25.866 10.866 29 7 29C3.13401 29 0 25.866 0 22C0 18.134 3.13401 15 7 15C10.8271 15 13.9368 18.0712 13.999 21.8834C13.9997 21.9222 14 21.9611 14 22Z" fill="#191919"/>
<path d="M29 5C29 7.76142 26.7614 10 24 10C21.2386 10 19 7.76142 19 5C19 2.23858 21.2386 0 24 0C26.7614 0 29 2.23858 29 5Z" fill="#191919"/>
<path d="M7 15C10.8271 15 13.9368 18.0712 13.999 21.8834C13.9973 21.222 14.0384 17.9024 15 16C16.1212 13.782 17.3422 12.733 19.5 11.5C21.1084 10.5809 24 10 24 10C21.2386 10 19 7.76142 19 5C19 5 18.1009 7.92321 17 9.5C15.6539 11.4278 14.5745 12.3933 12.5 13.5C10.5357 14.5479 7 15 7 15Z" fill="#191919"/>
<path d="M33 21.9998C33 18.1339 36.134 14.9998 40 14.9998C43.866 14.9998 47 18.1339 47 21.9998C47 25.8658 43.866 28.9999 40 28.9999C36.1729 28.9999 33.0632 25.9286 33.0009 22.1164C33.0003 22.0776 33 22.0388 33 21.9998Z" fill="#191919"/>
<path d="M19 38C19 35.2386 21.2386 33 24 33C26.7614 33 29 35.2386 29 38C29 40.7614 26.7614 43 24 43C21.2386 43 19 40.7614 19 38Z" fill="#191919"/>
<path d="M40 28.9999C36.1729 28.9999 33.0632 25.9286 33.0009 22.1164C33.0027 22.7779 32.9616 26.0975 32 27.9999C30.8788 30.2179 30.1578 30.767 28 32C26.3916 32.9191 24 33 24 33C26.7614 33 29 35.2386 29 38C29 38 28.8991 36.0768 30 34.5C31.3461 32.5722 32.4255 31.6065 34.5 30.4999C36.4643 29.452 40 28.9999 40 28.9999Z" fill="#191919"/>
</svg>
